<mxfile host="app.diagrams.net" modified="2020-12-15T11:26:27.899Z" agent="5.0 (Macintosh; Intel Mac OS X 10_15_7) AppleWebKit/537.36 (KHTML, like Gecko) Chrome/87.0.4280.88 Safari/537.36" etag="SV_x7iMFfKx2j9fMk2l4" version="14.0.0" type="github">
  <diagram id="hrnFKmtW3_yQnPrmMaIJ" name="Page-1">
    <mxGraphModel dx="909" dy="591" grid="1" gridSize="10" guides="1" tooltips="1" connect="1" arrows="1" fold="1" page="1" pageScale="1" pageWidth="827" pageHeight="1169" math="0" shadow="0">
      <root>
        <mxCell id="0" />
        <mxCell id="1" parent="0" />
        <mxCell id="i7LK_EN6gtuCaSUIgNgd-3" value="" style="edgeStyle=orthogonalEdgeStyle;rounded=0;orthogonalLoop=1;jettySize=auto;html=1;" edge="1" parent="1" source="i7LK_EN6gtuCaSUIgNgd-1" target="i7LK_EN6gtuCaSUIgNgd-2">
          <mxGeometry relative="1" as="geometry" />
        </mxCell>
        <mxCell id="i7LK_EN6gtuCaSUIgNgd-1" value="下载视频" style="rounded=0;whiteSpace=wrap;html=1;fillColor=#ffe6cc;strokeColor=#d79b00;" vertex="1" parent="1">
          <mxGeometry x="210" y="90" width="120" height="60" as="geometry" />
        </mxCell>
        <mxCell id="i7LK_EN6gtuCaSUIgNgd-5" value="" style="edgeStyle=orthogonalEdgeStyle;rounded=0;orthogonalLoop=1;jettySize=auto;html=1;" edge="1" parent="1" source="i7LK_EN6gtuCaSUIgNgd-2" target="i7LK_EN6gtuCaSUIgNgd-4">
          <mxGeometry relative="1" as="geometry" />
        </mxCell>
        <mxCell id="i7LK_EN6gtuCaSUIgNgd-2" value="抽帧" style="rounded=0;whiteSpace=wrap;html=1;fillColor=#ffe6cc;strokeColor=#d79b00;" vertex="1" parent="1">
          <mxGeometry x="210" y="230" width="120" height="60" as="geometry" />
        </mxCell>
        <mxCell id="i7LK_EN6gtuCaSUIgNgd-9" value="" style="edgeStyle=orthogonalEdgeStyle;rounded=0;orthogonalLoop=1;jettySize=auto;html=1;" edge="1" parent="1" source="i7LK_EN6gtuCaSUIgNgd-4" target="i7LK_EN6gtuCaSUIgNgd-8">
          <mxGeometry relative="1" as="geometry" />
        </mxCell>
        <mxCell id="i7LK_EN6gtuCaSUIgNgd-4" value="OCR" style="rounded=0;whiteSpace=wrap;html=1;fillColor=#ffe6cc;strokeColor=#d79b00;" vertex="1" parent="1">
          <mxGeometry x="210" y="370" width="120" height="60" as="geometry" />
        </mxCell>
        <mxCell id="i7LK_EN6gtuCaSUIgNgd-8" value="Mongo" style="rounded=0;whiteSpace=wrap;html=1;fillColor=#ffe6cc;strokeColor=#d79b00;" vertex="1" parent="1">
          <mxGeometry x="210" y="510" width="120" height="60" as="geometry" />
        </mxCell>
      </root>
    </mxGraphModel>
  </diagram>
</mxfile>
